<?xml version="1.0" encoding="UTF-8" standalone="no"?>
<!-- Created with Inkscape (http://www.inkscape.org/) -->

<svg
   xmlns:dc="http://purl.org/dc/elements/1.1/"
   xmlns:cc="http://creativecommons.org/ns#"
   xmlns:rdf="http://www.w3.org/1999/02/22-rdf-syntax-ns#"
   xmlns:svg="http://www.w3.org/2000/svg"
   xmlns="http://www.w3.org/2000/svg"
   xmlns:xlink="http://www.w3.org/1999/xlink"
   xmlns:sodipodi="http://sodipodi.sourceforge.net/DTD/sodipodi-0.dtd"
   xmlns:inkscape="http://www.inkscape.org/namespaces/inkscape"
   width="1000"
   height="1000"
   id="svg2"
   version="1.1"
   inkscape:version="0.48.0 r9654"
   sodipodi:docname="SVG Test.svg">
  <defs
     id="defs4">
    <linearGradient
       id="linearGradient3983">
      <stop
         style="stop-color:#5b0000;stop-opacity:1;"
         offset="0"
         id="stop3985" />
      <stop
         style="stop-color:#ff0000;stop-opacity:0;"
         offset="1"
         id="stop3987" />
    </linearGradient>
    <linearGradient
       id="linearGradient3835">
      <stop
         style="stop-color:#ff0000;stop-opacity:1;"
         offset="0"
         id="stop3837" />

      <stop
         style="stop-color:#ff0000;stop-opacity:0;"
         offset="1"
         id="stop3839" />
    </linearGradient>
    <linearGradient
       id="linearGradient3797">
      <stop
         style="stop-color:#b10000;stop-opacity:0.99145299;"
         offset="0"
         id="stop3799" />
      <stop
         style="stop-color:#000000;stop-opacity:0;"
         offset="1"
         id="stop3801" />
    </linearGradient>
    <linearGradient
       inkscape:collect="always"
       id="linearGradient3956">
      <stop
         style="stop-color:#000000;stop-opacity:1;"
         offset="0"
         id="stop3958" />
      <stop
         style="stop-color:#000000;stop-opacity:0;"
         offset="1"
         id="stop3960" />

    </linearGradient>
    <linearGradient
       id="linearGradient3893">
      <stop
         style="stop-color:#c60000;stop-opacity:1;"
         offset="0"
         id="stop3895" />
      <stop
         style="stop-color:#090000;stop-opacity:0.05777778"
         offset="1"
         id="stop3897" />
    </linearGradient>
    <filter
       id="filter3103"
       inkscape:label="Carnaval"
       inkscape:menu="Overlays"
       inkscape:menu-tooltip="White splotches evocating carnaval masks"
       color-interpolation-filters="sRGB">
      <feGaussianBlur
         id="feGaussianBlur3105"
         stdDeviation="0.01"
         result="result8" />
      <feTurbulence
         id="feTurbulence3107"
         baseFrequency="0.025 0.028"
         numOctaves="5"
         type="turbulence"
         result="result7"
         seed="3" />
      <feColorMatrix
         id="feColorMatrix3109"
         values="1 0 0 0 0 0 1 0 0 0 0 0 1 0 0 0 0 0 6 -2.4 "
         result="result5" />

      <feComposite
         id="feComposite3111"
         in2="result7"
         operator="in"
         in="result8"
         result="result6" />
      <feDisplacementMap
         id="feDisplacementMap3113"
         in2="result6"
         result="result4"
         scale="40"
         yChannelSelector="A"
         xChannelSelector="R"
         in="result5" />
      <feFlood
         id="feFlood3115"
         flood-color="rgb(255,255,255)"
         flood-opacity="1"
         result="result10" />
      <feComposite
         id="feComposite3117"
         in2="result4"
         operator="in"
         result="result2" />
      <feComposite
         id="feComposite3119"
         in2="result8"
         operator="in"
         in="result2"
         result="result9" />
      <feBlend
         id="feBlend3121"
         in2="result8"
         mode="normal"
         result="result11" />
      <feBlend
         id="feBlend3123"
         in2="result11"
         mode="multiply" />
    </filter>
    <linearGradient
       inkscape:collect="always"
       xlink:href="#linearGradient3956"
       id="linearGradient3962"
       x1="130.53974"
       y1="723.48795"
       x2="788.6201"
       y2="723.48795"
       gradientUnits="userSpaceOnUse" />

    <filter
       id="filter3869"
       inkscape:menu-tooltip="In and out glow with a possible offset and colorizable flood"
       inkscape:menu="Shadows and Glows"
       inkscape:label="Cutout Glow"
       color-interpolation-filters="sRGB">
      <feOffset
         id="feOffset3871"
         dy="3"
         dx="3" />
      <feGaussianBlur
         id="feGaussianBlur3873"
         result="result8"
         stdDeviation="3" />
      <feFlood
         id="feFlood3875"
         flood-color="rgb(0,0,0)"
         flood-opacity="1"
         in="result8"
         result="result10" />
      <feComposite
         id="feComposite3877"
         in2="SourceGraphic"
         operator="in"
         in="result10"
         result="result9" />
      <feBlend
         id="feBlend3879"
         in2="result9"
         mode="normal"
         in="result8" />
    </filter>
    <filter
       id="filter3969"
       inkscape:label="Black hole"
       inkscape:menu="Morphology"
       inkscape:menu-tooltip="Creates a black light inside and outside"
       height="1.5"
       width="1.5"
       y="-0.25"
       x="-0.25"
       color-interpolation-filters="sRGB">
      <feGaussianBlur
         id="feGaussianBlur3971"
         stdDeviation="5"
         in="SourceAlpha"
         result="result1" />

      <feComposite
         id="feComposite3973"
         in2="result1"
         operator="arithmetic"
         k2="3.2"
         k1="-1"
         k4="-2"
         result="result3" />
      <feColorMatrix
         id="feColorMatrix3975"
         values="1 0 0 0 0 0 1 0 0 0 0 0 1 0 0 0 0 0 10 0 "
         result="result2" />
      <feComposite
         id="feComposite3977"
         in2="result2"
         result="fbSourceGraphic"
         in="SourceGraphic"
         operator="out" />
      <feBlend
         id="feBlend3979"
         in2="fbSourceGraphic"
         mode="multiply"
         in="result1"
         result="result91" />
      <feBlend
         id="feBlend3981"
         in2="result91"
         mode="screen"
         in="fbSourceGraphic" />
    </filter>
    <linearGradient
       inkscape:collect="always"
       xlink:href="#linearGradient3983"
       id="linearGradient3993"
       x1="-233.69504"
       y1="544.4212"
       x2="1233.7461"
       y2="544.4212"
       gradientUnits="userSpaceOnUse" />
  </defs>
  <sodipodi:namedview
     id="base"
     pagecolor="#ffffff"
     bordercolor="#666666"
     borderopacity="1.0"
     inkscape:pageopacity="0.0"
     inkscape:pageshadow="2"
     inkscape:zoom="0.7"
     inkscape:cx="568.11906"
     inkscape:cy="541.59497"
     inkscape:document-units="px"
     inkscape:current-layer="layer1"
     showgrid="false"
     inkscape:window-width="1253"
     inkscape:window-height="685"
     inkscape:window-x="0"
     inkscape:window-y="0"
     inkscape:window-maximized="0"
     inkscape:snap-page="false"
     inkscape:snap-grids="true"
     inkscape:snap-to-guides="true" />

  <metadata
     id="metadata7">
    <rdf:RDF>
      <cc:Work
         rdf:about="">
        <dc:format>image/svg+xml</dc:format>
        <dc:type
           rdf:resource="http://purl.org/dc/dcmitype/StillImage" />
      </cc:Work>
    </rdf:RDF>
  </metadata>

  <g
     inkscape:groupmode="layer"
     id="layer3"
     inkscape:label="Layer#1">
    <path
       sodipodi:type="spiral"
       style="fill:#560000;fill-opacity:1;stroke:#ff0000;stroke-width:5.5999999;stroke-linecap:butt;stroke-linejoin:miter;stroke-miterlimit:4;stroke-opacity:0.23999999;stroke-dasharray:none"
       id="path4012"
       sodipodi:cx="925.29974"
       sodipodi:cy="896.96442"
       sodipodi:expansion="1"
       sodipodi:revolution="3"
       sodipodi:radius="445.68222"
       sodipodi:argument="-21.06748"
       sodipodi:t0="0"
       d="m 925.29974,896.96442 c -13.47222,-17.8279 17.38493,-26.95595 29.63114,-22.39173 33.18646,12.36876 32.58759,56.99781 15.15231,81.654 -31.18763,44.10411 -95.77651,40.79127 -133.67685,7.91289 -55.62027,-48.25033 -49.32068,-135.11112 -0.67349,-185.6997 64.83907,-67.42663 174.64695,-57.99384 237.72255,6.56593 79.3742,81.24187 66.7424,214.27971 -13.8053,289.74539 -97.55407,91.3991 -253.96722,75.5347 -341.7683,-21.0447 C 614.41127,939.89094 633.52722,760.01762 746.16597,659.91534 876.21185,544.34329 1079.5993,566.7225 1191.98,695.43892 1319.674,841.69469 1294.0239,1068.6327 1149.217,1193.2758 986.76548,1333.1065 736.25106,1304.1801 599.35727,1143.2734 447.3792,964.63636 479.58552,690.52655 656.59908,541.3908"
       transform="translate(-446.48743,-343.45186)" />
  </g>
  <g
     inkscape:groupmode="layer"
     id="layer2"
     inkscape:label="Layer">
    <path
       style="fill:#550000;fill-opacity:0.19607843000000000;fill-rule:evenodd;stroke-width:7.38799999999999990;stroke-miterlimit:4;stroke-dasharray:7.38799999999999990, 14.77599999999999980;stroke:url(#linearGradient3962);stroke-linejoin:round;stroke-linecap:round;stroke-dashoffset:0;opacity:0.30172414"
       id="path3952"
       d="m 277.91912,605.38655 c 8.81996,11.33689 18.77226,21.71484 29.05742,31.71436 17.30218,14.91176 35.32002,28.97181 53.14988,43.25152 9.53702,7.13957 17.69654,15.84668 26.46147,23.85376 7.55489,6.90167 15.53098,13.37349 23.41789,19.88798 9.972,7.39202 20.23839,14.31585 29.68796,22.37719 5.26922,4.37184 10.77428,8.76322 16.87277,11.95746 2.44171,1.27891 7.43395,3.18279 9.95482,4.18433 14.42307,5.49003 29.45758,8.69314 44.60741,11.36598 17.1046,2.08128 34.47434,4.24961 51.74453,3.20297 3.57076,-0.2164 7.12258,-0.67624 10.68387,-1.01436 16.87684,-2.22146 33.5673,-5.61143 49.89294,-10.45694 7.00662,-2.07959 20.22554,-6.68512 27.06954,-9.02741 4.53375,-1.744 9.12551,-3.34409 13.60123,-5.23202 4.47254,-1.88658 8.8712,-3.94917 13.22986,-6.08571 4.24659,-2.08162 16.64656,-8.97571 12.57786,-6.56483 -98.19147,58.18272 -45.82119,26.93262 -33.6093,18.35266 2.85491,-2.00583 5.55397,-4.22482 8.33095,-6.33723 10.01567,-8.05272 19.6822,-16.91791 25.02073,-28.80224 2.70797,-7.89435 2.53682,-9.22287 -2.15652,-15.91345 -5.84799,-6.62621 -14.21029,-9.21387 -22.39482,-11.73313 -7.21769,-1.57742 -14.79989,-3.24099 -22.24996,-2.55235 -1.81655,0.16791 -3.60244,0.57847 -5.40367,0.86771 -7.40587,2.01592 -14.83099,4.10132 -21.92177,7.07644 -3.74872,1.57287 -7.34166,3.49409 -11.02692,5.21038 -14.80917,6.73566 -29.14274,14.39298 -43.4575,22.09511 -21.33505,11.83367 -55.67135,30.55517 42.50835,-24.47669 1.52925,-0.85717 -2.87921,2.00129 -4.2985,3.03037 -4.17569,3.02764 -5.07057,3.78598 -9.09822,6.93677 -25.25234,18.78415 -54.53859,33.19051 -81.30772,48.58245 -16.54527,9.51333 66.29828,-37.84216 49.57374,-28.64765 -23.02342,12.6574 -45.64901,26.02535 -68.47351,39.03802 -24.98802,14.10779 -50.66968,26.95995 -76.39561,39.66109 -16.86287,9.01462 -34.91981,13.32685 -53.58105,16.60281 -16.48219,1.52452 -33.0083,2.48753 -49.55295,2.94842 -6.99754,-0.72693 -14.18756,-0.25108 -21.11068,-1.68836 -4.37917,-0.90914 -6.53355,-1.88861 -10.76898,-3.44691 -2.02257,-0.85398 -4.0463,-1.7052 -6.06771,-2.56193 -3.65242,-1.548 -9.09738,-3.77628 -12.58105,-5.65812 -7.39825,-3.99644 -14.08082,-9.09 -20.74498,-14.16692 -8.18126,-6.36096 -16.14549,-12.99476 -24.16046,-19.56246 -3.09948,-2.5398 -6.31295,-4.94802 -9.28464,-7.63621 -5.01276,-4.53456 -14.77401,-14.77107 -19.43147,-19.57776 -12.63555,-14.84179 -24.29776,-30.6359 -33.90232,-47.63041 -5.46547,-9.67073 -7.28485,-14.26341 -11.77275,-24.19785 -3.55178,-10.74739 -4.05224,-11.73243 -6.88742,-22.22653 -2.04133,-7.55577 -4.21558,-15.49915 -2.64455,-23.39604 0.43763,-2.19978 1.42984,-4.2518 2.14477,-6.37769 1.05245,-1.72215 1.96333,-3.53924 3.15735,-5.16643 1.6801,-2.28963 5.169,-5.77116 7.62733,-7.2285 23.37996,-13.86006 47.1037,-32.55334 74.07502,-40.80917 1.52219,-0.54731 3.00565,-1.2175 4.56657,-1.64194 4.18792,-1.13876 8.50551,-1.73696 12.73245,-2.72107 10.58043,-2.46335 21.12217,-5.06704 31.71494,-7.48079 18.13033,-3.84698 36.07218,-8.51069 54.34623,-11.65286 4.70002,-0.43716 9.52732,-1.67976 14.28879,-1.30304 2.21921,0.17557 4.80916,0.91869 6.93288,1.44315 8.73763,2.77207 16.74337,7.04144 24.66129,11.58306 9.4829,8.87339 19.85205,16.73235 30.11242,24.67198 10.82432,8.82076 20.58136,18.83345 30.81959,28.29823 8.11983,9.05048 14.7687,19.26382 22.63035,28.52441 4.87755,5.74548 11.17213,12.33828 16.30622,17.82655 14.80574,13.41217 27.58157,28.78358 39.88586,44.4568 10.24549,12.66133 20.3476,25.38762 29.69684,38.73186 7.98791,10.90671 14.78709,22.76526 23.46402,33.1701 1.91595,2.29749 4.06602,4.38918 6.09902,6.58376 13.16609,13.16997 27.28274,25.39307 41.26453,37.69589 17.47486,14.22951 38.03105,19.29604 59.76042,22.83984 10.6132,1.30999 21.38621,2.71791 32.01785,0.76645 4.35755,-0.79984 11.33623,-2.95653 15.36466,-4.12293 3.456,-1.31683 6.9466,-2.54623 10.368,-3.95049 1.03116,-0.42322 21.23153,-9.30704 22.21596,-9.78448 3.51754,-1.70596 13.74005,-7.4613 10.36237,-5.49288 -60.13468,35.0448 -63.3634,37.3008 -42.27289,23.67123 6.11551,-4.60021 3.35733,-2.31424 8.35062,-6.76504 0,0 64.84933,-26.7363 64.84933,-26.7363 l 0,0 c -5.5388,5.73566 -2.44953,2.84893 -9.38527,8.53275 -36.78124,25.19608 -76.30594,46.97088 -118.34261,61.9564 -3.2531,0.89241 -6.46298,1.9608 -9.75931,2.67723 -13.00569,2.82668 -26.39574,0.30129 -39.23671,-2.08025 -22.01501,-5.12236 -44.05435,-11.28838 -62.155,-25.50359 -14.25728,-12.29828 -27.89457,-25.36941 -41.52232,-38.35425 -2.21477,-2.34705 -4.53544,-4.59851 -6.64432,-7.04115 -8.94031,-10.35526 -16.38596,-22.00032 -23.95923,-33.34782 -3.38656,-5.21058 -5.56359,-8.82311 -9.47196,-13.72973 -20.87764,-26.21008 8.51267,11.65735 -11.46368,-12.8193 -1.44104,-1.76569 -2.57421,-3.76249 -3.91512,-5.60537 -1.53564,-2.11051 -3.14209,-4.16859 -4.71313,-6.25288 -11.42132,-15.88475 -23.49014,-31.35772 -37.67632,-44.90501 -13.93036,-14.64557 -27.63898,-29.47573 -41.16789,-44.49106 -9.94834,-9.44376 -19.36528,-19.55233 -30.33981,-27.82082 -10.13614,-7.81751 -20.09837,-15.92052 -30.66835,-23.13732 -7.40558,-4.14801 -14.99193,-8.07774 -23.52174,-9.26871 -6.42906,-0.38693 -12.84652,0.35083 -19.23171,1.10718 -17.19554,2.38101 -34.17949,6.03873 -51.09563,9.90125 -17.35605,4.45183 -34.82653,8.78953 -51.69411,14.87502 -21.81211,9.34935 -52.72726,29.90342 46.61076,-28.13346 1.46797,-0.85764 -2.97917,1.64281 -4.41929,2.54645 -4.77137,2.9939 -4.04342,2.70275 -8.23844,6.65112 -1.03773,1.56805 -2.33964,2.9903 -3.11318,4.70415 -5.36097,11.87761 1.74224,32.03815 4.9935,43.67293 1.50752,3.86313 2.84269,7.79803 4.52256,11.5894 9.55485,21.56481 23.78824,40.81708 39.35571,58.37835 7.54924,7.49767 11.43018,11.74623 19.68027,18.40618 3.21025,2.5915 6.68654,4.83641 9.9674,7.33791 8.19417,6.24769 16.04462,12.95903 24.54492,18.80647 12.46083,8.08972 25.26004,15.6623 39.72844,19.60262 9.96603,2.54543 20.24249,3.31274 30.51646,3.39413 15.92204,0.0331 31.93258,-0.15331 47.65344,-2.9775 7.50841,-1.42892 10.23669,-1.77716 17.72997,-3.93288 11.62125,-3.34328 22.69299,-8.28847 33.66843,-13.29682 25.72257,-12.26676 51.10884,-25.24895 75.75997,-39.56517 -160.52487,93.29938 144.7488,-83.65569 -31.85058,18.36623 -1.9326,1.11647 3.85098,-2.25736 5.77344,-3.39121 1.74976,-1.03199 3.55424,-1.97754 5.24319,-3.1063 1.54808,-1.03461 2.9682,-2.24893 4.45229,-3.3734 1.52522,-1.10426 3.0969,-2.14704 4.57564,-3.3128 3.68275,-2.90326 4.93129,-4.66427 8.97794,-7.08463 25.14073,-15.03705 50.14577,-30.63146 76.14377,-44.26535 14.41391,-7.65643 29.12164,-14.73167 43.80396,-21.85597 11.1002,-5.08902 22.57426,-9.19263 34.75058,-10.8205 10.74974,-0.66585 19.56441,0.3583 29.80009,3.82674 9.6671,3.40201 18.0099,7.06186 24.79915,15.14078 6.29252,7.49751 8.64491,12.66452 5.68963,22.35216 -1.35276,3.72936 -1.8691,5.6534 -3.97324,9.18338 -5.74713,9.64157 -14.41318,17.05691 -22.75352,24.3493 -28.43871,22.18967 -53.47559,34.34184 -88.34923,53.90982 -12.56935,7.0528 -26.27318,12.03569 -39.75153,16.98439 -25.85609,8.74258 -52.15983,16.46163 -79.41579,19.30897 -3.74294,0.26991 -7.47857,0.67519 -11.22882,0.80973 -17.61918,0.63209 -35.19727,-2.18906 -52.66574,-3.98041 -16.03369,-2.42533 -31.96224,-5.99333 -47.23073,-11.51995 -10.4048,-4.55265 -19.76596,-10.15728 -28.21747,-17.82261 -9.31762,-7.91262 -19.05676,-15.30895 -28.09048,-23.54482 -17.46211,-16.71409 5.6914,5.33097 -14.23302,-13.2131 -11.27764,-10.49634 -22.17409,-21.43366 -34.40139,-30.86357 -8.97966,-7.06223 -17.76705,-14.3343 -26.64426,-21.52324 -6.11803,-4.9545 -12.43859,-9.65647 -18.52877,-14.64516 -2.8964,-2.37254 -5.67038,-4.89072 -8.50558,-7.33609 -7.34529,-6.42757 -14.45764,-13.07563 -21.77163,-19.53555 -2.1027,-1.85716 -5.98175,-5.4756 -8.47437,-7.26604 -0.64646,-0.46436 -1.39225,-0.77189 -2.08837,-1.15784 0,0 60.46716,-39.12338 60.46716,-39.12338 z"
       inkscape:connector-curvature="0" />
    <path
       style="fill:#550000;fill-opacity:0.19607843000000000;fill-rule:evenodd;stroke-width:0.98799998000000000;stroke-miterlimit:4;stroke-dasharray:none;"
       id="path3954"
       d="m 590.36492,139.57081 c -1.91917,5.9164 -3.54397,11.93305 -5.96154,17.67287 -5.253,11.10861 -13.19519,20.72437 -20.95374,30.16218 -14.27,16.20946 -31.08822,29.84081 -47.49646,43.78024 -11.69634,10.26534 -24.55965,18.96747 -37.49382,27.54735 -13.24084,8.02802 -26.39813,16.6342 -40.6082,22.91274 -4.72194,2.08633 -7.25836,2.8413 -12.1543,4.52587 -13.52238,4.44064 -27.41975,7.46442 -41.40222,10.01996 -8.29457,1.04906 -14.63054,1.92423 -22.96677,2.68074 -8.65565,0.78551 -10.87335,1.67672 -18.90776,-1.25723 -5.50239,-2.00932 -7.23871,-4.084 -11.45426,-7.6834 -5.12673,-5.62859 -8.66915,-12.31565 -6.85755,-19.98462 0.75931,-1.07072 1.40543,-2.23148 2.27794,-3.21215 2.54925,-2.86528 5.93775,-5.35135 9.20263,-7.2626 15.05898,-8.8155 28.27236,-16.02645 43.61734,-23.19549 11.5958,-5.38584 23.65332,-9.51588 35.75945,-13.54546 13.09563,-4.99111 25.77702,-10.85375 39.18212,-15.00377 13.80857,-3.39101 27.8889,-5.57583 42.08025,-6.39012 9.54784,-0.33233 19.14673,-0.64018 28.60519,1.02732 2.25469,0.39749 4.46095,1.03265 6.69143,1.54898 18.05967,4.31482 36.15355,8.36198 54.03328,13.39928 13.2631,3.85659 26.61072,7.57128 40.15322,10.32522 3.52338,0.6626 7.07724,1.16027 10.65094,1.44947 0.89181,0.0722 1.79434,0.30492 2.6788,0.16978 1.48375,-0.22671 3.10354,-1.52365 4.27262,-2.31478 -31.53376,17.9936 -18.8244,14.20027 -15.56497,5.37321 1.01776,-2.75626 1.3882,-5.66129 1.75993,-8.55357 0.41618,-7.44861 1.73009,-14.79185 2.81317,-22.15998 1.08245,-7.31078 1.41811,-14.69055 1.55634,-22.06982 -0.39328,-7.82335 -2.32467,-15.37454 -4.73643,-22.7801 -2.84744,-6.09217 -4.77804,-12.53325 -7.19487,-18.79157 -2.29755,-6.21853 -7.79981,-9.14501 -12.81541,-12.91981 -4.80471,-2.96636 -9.56318,-6.21851 -14.95729,-8.01311 -0.84633,-0.19287 -2.58159,-0.7739 -3.54084,-0.35303 -0.60058,0.26351 -2.0808,1.57554 -1.4969,1.2769 6.11304,-3.12665 11.86425,-6.9689 18.12736,-9.78291 1.1133,-0.5002 -1.66819,1.78482 -2.43659,2.73308 -0.77248,0.95329 -1.45397,1.97686 -2.18095,2.96529 -3.31282,4.40372 -6.20092,9.0608 -8.73458,13.94432 -2.38516,3.75659 -2.90473,8.15039 -3.77658,12.4173 -0.61392,3.29712 -0.32881,1.62177 -0.85104,5.02679 0,0 -21.35039,10.51152 -21.35039,10.51152 l 0,0 c 0.43326,-3.5032 0.17316,-1.78532 0.77189,-5.15491 0.8904,-4.41023 1.15692,-9.07021 3.4016,-13.05224 2.86934,-4.80706 5.19275,-9.96567 8.88082,-14.27565 7.05717,-10.57933 19.80603,-23.824247 32.99383,-19.5924 5.38673,2.22322 10.24117,5.54938 15.10459,8.71849 5.41957,3.99375 11.18871,7.32389 13.59692,13.99224 2.48398,6.28384 4.17458,12.85666 7.09136,18.97878 2.64452,7.61907 4.42254,15.42157 5.1806,23.47042 -0.19057,7.46747 -0.29049,14.95883 -1.48026,22.35234 -1.04149,7.31762 -2.46419,14.61652 -2.66605,22.02164 -2.08929,18.91358 -4.70918,15.91489 -26.06695,28.62862 -0.80849,0.31734 -1.58145,0.74705 -2.42545,0.95202 -5.15877,1.25281 -10.78207,-1.28669 -15.85067,-1.80634 -13.33092,-3.09516 -26.46071,-7.02102 -39.58314,-10.88913 -17.94042,-5.08194 -36.10545,-9.07777 -54.32511,-13.01696 -11.61522,-2.26606 -23.31719,-2.82864 -35.13033,-1.91855 -13.94488,0.92816 -27.85558,2.74711 -41.33959,6.54892 -13.45949,4.45669 -26.26318,10.47674 -39.57223,15.33629 -11.88928,3.92836 -23.69468,8.08516 -35.07444,13.35547 -2.74893,1.29863 -5.51521,2.56115 -8.2468,3.89589 -2.85396,1.39454 -10.96006,6.31106 -8.50845,4.29128 3.74715,-3.08715 8.28139,-5.07069 12.45837,-7.54547 1.8337,-1.08644 -3.69617,2.13731 -5.42781,3.37998 -1.27592,0.91563 -2.40132,2.02543 -3.56858,3.07606 -0.82843,0.74564 -1.61103,1.54067 -2.41654,2.31101 -3.13741,6.39522 0.7488,12.90715 4.93962,17.8231 3.87461,3.33861 5.35585,5.20377 10.49419,6.95869 7.17608,2.45088 10.35281,1.6683 18.05312,0.96715 9.83867,-0.89587 13.31935,-1.55538 23.10529,-3.00915 14.04862,-2.80802 28.0017,-6.13542 41.61976,-10.62519 5.87113,-2.14819 11.52352,-4.44506 17.08029,-7.32275 1.79169,-0.92787 7.05335,-3.91657 5.33738,-2.85518 -3.13051,1.93633 -24.16838,14.34844 -9.59495,5.46646 17.99368,-12.20189 -9.41818,6.27532 9.89483,-6.35079 9.96494,-6.51469 19.42522,-13.79737 28.63242,-21.33048 16.23033,-13.77337 32.85795,-27.19559 47.04509,-43.15632 4.63835,-5.63059 9.0177,-11.21835 13.19673,-17.19117 2.69928,-3.85792 5.67106,-7.5553 7.20113,-12.08885 2.80755,-5.38166 4.1269,-11.28519 6.07092,-17.00059 0,0 21.55805,-10.53962 21.55805,-10.53962 z"
       inkscape:connector-curvature="0" />
  </g>
  <g
     inkscape:label="Layer 1"
     inkscape:groupmode="layer"
     id="layer1"
     transform="translate(0,-52.362183)">
    <path
       sodipodi:type="arc"
       style="fill:url(#linearGradient3993);fill-rule:evenodd;stroke:#000000;stroke-width:0.99979799000000003;stroke-linecap:butt;stroke-linejoin:miter;stroke-opacity:1;fill-opacity:1;stroke-miterlimit:4;stroke-dasharray:none;filter:url(#filter3969)"
       id="path2995"
       sodipodi:cx="500.02551"
       sodipodi:cy="544.4212"
       sodipodi:rx="498.00522"
       sodipodi:ry="439.41635"
       d="m 998.03073,544.4212 c 0,242.68295 -222.96453,439.41635 -498.00522,439.41635 -275.04068,0 -498.0052158,-196.7334 -498.0052158,-439.41635 0,-242.68295 222.9645358,-439.41635 498.0052158,-439.41635 275.04069,0 498.00522,196.7334 498.00522,439.41635 z"
       transform="matrix(0.94368313,0,0,1.0348161,27.426375,-14.399466)" />

    <text
       xml:space="preserve"
       style="font-size:350px;font-style:normal;font-weight:normal;line-height:125%;letter-spacing:0px;word-spacing:0px;fill:#000000;fill-opacity:0.36888888;stroke:#000000;font-family:Sans;stroke-opacity:0.61777775999999995"
       x="156.14801"
       y="663.52167"
       id="text3929"
       sodipodi:linespacing="125%"><tspan
         sodipodi:role="line"
         id="tspan3931"
         x="156.14801"
         y="663.52167"
         style="font-size:350px;fill:#000000;fill-opacity:0.36888888;stroke:#000000;stroke-opacity:0.61777775999999995">SVG</tspan></text>
    <text
       sodipodi:linespacing="125%"
       id="text3933"
       y="849.97675"
       x="-91.491875"
       style="font-size:264.54742432px;font-style:normal;font-weight:normal;line-height:125%;letter-spacing:0px;word-spacing:0px;fill:#000000;fill-opacity:1;stroke:none;font-family:Sans"
       xml:space="preserve"
       transform="matrix(0.88098774,-0.4694717,0.37039996,0.93770624,0,0)"><tspan
         style="font-size:370.36639404px;fill:#000000;fill-opacity:1"
         y="849.97675"
         x="-91.491875"
         id="tspan3935"
         sodipodi:role="line">SVG</tspan></text>
    <text
       transform="matrix(0.88098774,-0.4694717,0.37039996,0.93770624,0,0)"
       xml:space="preserve"
       style="font-size:264.54742432px;font-style:normal;font-weight:normal;line-height:125%;letter-spacing:0px;word-spacing:0px;fill:#fffffd;fill-opacity:1;stroke:none;font-family:Sans"
       x="-94.930275"
       y="841.79175"
       id="text4017"
       sodipodi:linespacing="125%"><tspan
         sodipodi:role="line"
         id="tspan4019"
         x="-94.930275"
         y="841.79175"
         style="font-size:370.36639404px;fill:#fffffd;fill-opacity:1">SVG</tspan></text>
  </g>
</svg>